<?xml version="1.0" encoding="UTF-8" standalone="no"?>
<svg
   xmlns:dc="http://purl.org/dc/elements/1.1/"
   xmlns:cc="http://creativecommons.org/ns#"
   xmlns:rdf="http://www.w3.org/1999/02/22-rdf-syntax-ns#"
   xmlns:svg="http://www.w3.org/2000/svg"
   xmlns="http://www.w3.org/2000/svg"
   xmlns:sodipodi="http://sodipodi.sourceforge.net/DTD/sodipodi-0.dtd"
   xmlns:inkscape="http://www.inkscape.org/namespaces/inkscape"
   height="512"
   viewBox="0 0 64 64"
   width="512"
   version="1.1"
   id="svg44"
   sodipodi:docname="log.svg"
   inkscape:version="0.92.3 (2405546, 2018-03-11)">
  <metadata
     id="metadata50">
    <rdf:RDF>
      <cc:Work
         rdf:about="">
        <dc:format>image/svg+xml</dc:format>
        <dc:type
           rdf:resource="http://purl.org/dc/dcmitype/StillImage" />
      </cc:Work>
    </rdf:RDF>
  </metadata>
  <defs
     id="defs48" />
  <sodipodi:namedview
     pagecolor="#ffffff"
     bordercolor="#666666"
     borderopacity="1"
     objecttolerance="10"
     gridtolerance="10"
     guidetolerance="10"
     inkscape:pageopacity="0"
     inkscape:pageshadow="2"
     inkscape:window-width="1680"
     inkscape:window-height="971"
     id="namedview46"
     showgrid="false"
     inkscape:zoom="0.4609375"
     inkscape:cx="-347.25256"
     inkscape:cy="296.04644"
     inkscape:window-x="-9"
     inkscape:window-y="-9"
     inkscape:window-maximized="1"
     inkscape:current-layer="svg44" />
  <path
     d="m48 39c-3.31 0-6 4.92-6 11s2.69 11 6 11h-39c-3.31 0-6-4.92-6-11s2.69-11 6-11z"
     fill="#b39a7c"
     id="path2" />
  <path
     d="m35 41c0 2.21-3.81 4-8.5 4s-8.5-1.79-8.5-4a2.643 2.643 0 0 1 1.15-2h14.7a2.643 2.643 0 0 1 1.15 2z"
     fill="#957856"
     id="path4" />
  <ellipse
     cx="21"
     cy="21.5"
     fill="#c0ab91"
     rx="11"
     ry="2.5"
     id="ellipse6" />
  <ellipse
     cx="48"
     cy="50"
     fill="#b39a7c"
     rx="6"
     ry="11"
     id="ellipse8" />
  <path
     d="m15 6v5h-1.5a2.5 2.5 0 1 1 0-5z"
     fill="#acabb1"
     id="path10" />
  <path
     d="m58.5 6a2.5 2.5 0 1 1 0 5h-31.5v-5z"
     fill="#acabb1"
     id="path12" />
  <path
     d="m28 17v2a2.048 2.048 0 0 1 -.08.56 2.019 2.019 0 0 1 -1.92 1.44h-10a2.019 2.019 0 0 1 -1.92-1.44 2.048 2.048 0 0 1 -.08-.56v-2l1-2v-11a1 1 0 0 1 1-1h10a1 1 0 0 1 1 1v11z"
     fill="#ffda44"
     id="path14"
     style="fill:#5f8d70;fill-opacity:1" />
  <path
     d="m28 39.09c1.75.2 3 .76 3 1.41 0 .83-2.01 1.5-4.5 1.5s-4.5-.67-4.5-1.5 2.01-1.5 4.5-1.5a11.859 11.859 0 0 1 1.5.09z"
     fill="#6a563d"
     id="path16" />
  <ellipse
     cx="48"
     cy="50"
     fill="#a78966"
     rx="3"
     ry="7"
     id="ellipse18" />
  <path
     d="m32 21.5v17.5h-22v-17.5c0 1.38 4.92 2.5 11 2.5s11-1.12 11-2.5z"
     fill="#a78966"
     id="path20" />
  <path
     d="m48 58c2.575 0 4-4.73 4-8s-1.425-8-4-8-4 4.73-4 8 1.425 8 4 8zm0-14c.548 0 2 2.725 2 6s-1.452 6-2 6-2-2.725-2-6 1.452-6 2-6z"
     id="path22" />
  <path
     d="m6 55h7v2h-7z"
     id="path24" />
  <path
     d="m16 55h4v2h-4z"
     id="path26" />
  <path
     d="m23 51h6v2h-6z"
     id="path28" />
  <path
     d="m33 51h4v2h-4z"
     id="path30" />
  <path
     d="m30 56h5v2h-5z"
     id="path32" />
  <path
     d="m6 46h4v2h-4z"
     id="path34" />
  <path
     d="m58.5 5h-30.5v-1a2.006 2.006 0 0 0 -2-2h-10a2.006 2.006 0 0 0 -2 2v1h-.5a3.5 3.5 0 0 0 0 7h.5v2.76l-.89 1.79a1 1 0 0 0 -.11.45v1.77c-2.71.61-4 1.49-4 2.73v16.5c-3.92 0-7 5.27-7 12s3.08 12 7 12h39c3.92 0 7-5.27 7-12s-3.08-12-7-12h-15v-16.5c0-1.24-1.29-2.12-4-2.73v-1.77a1 1 0 0 0 -.11-.45l-.89-1.79v-2.76h30.5a3.5 3.5 0 0 0 0-7zm-43.5 13h2v-2h-1.38l.27-.55a1 1 0 0 0 .11-.45v-11h10v11a1 1 0 0 0 .11.45l.27.55h-7.38v2h8v1a1 1 0 0 1 -1 1h-10a1 1 0 0 1 -1-1zm-1.5-8a1.5 1.5 0 0 1 0-3h.5v3zm34.5 30c2.71 0 5 4.58 5 10s-2.29 10-5 10-5-4.58-5-10 2.29-10 5-10zm-12.18 0h8.26c-1.87 2.13-3.08 5.78-3.08 10s1.21 7.87 3.08 10h-35.08c-2.71 0-5-4.58-5-10s2.29-10 5-10h8.18a3.073 3.073 0 0 0 -.18 1c0 2.85 4.08 5 9.5 5s9.5-2.15 9.5-5a3.073 3.073 0 0 0 -.18-1zm-3.91 0h1.56a1.484 1.484 0 0 1 .53 1c0 1.25-2.85 3-7.5 3s-7.5-1.75-7.5-3a1.484 1.484 0 0 1 .53-1h1.56a1.64 1.64 0 0 0 -.09.5c0 1.85 2.96 2.5 5.5 2.5s5.5-.65 5.5-2.5a1.64 1.64 0 0 0 -.09-.5zm-8.58.5a8.684 8.684 0 0 1 3.17-.5 8.684 8.684 0 0 1 3.17.5 8.684 8.684 0 0 1 -3.17.5 8.684 8.684 0 0 1 -3.17-.5zm7.67-2.5h-2v-3h-2v3h-16v-14.36c3.02 1.27 8.56 1.36 10 1.36s6.98-.09 10-1.36zm-2.53-17.31a7.878 7.878 0 0 1 2.36.82c-.91.59-4.26 1.49-9.83 1.49s-8.92-.9-9.83-1.49a7.878 7.878 0 0 1 2.36-.82 2.983 2.983 0 0 0 2.47 1.31h10a2.983 2.983 0 0 0 2.47-1.31zm30.03-10.69h-30.5v-3h30.5a1.5 1.5 0 0 1 0 3z"
     id="path36" />
  <path
     d="m13 31h2v4h-2z"
     id="path38" />
  <path
     d="m16 27h2v2h-2z"
     id="path40" />
  <path
     d="m21 29h2v6h-2z"
     id="path42" />
</svg>
