<?xml version="1.0" encoding="UTF-8" standalone="no"?>
<!-- Created with Inkscape (http://www.inkscape.org/) -->

<svg
   xmlns:dc="http://purl.org/dc/elements/1.1/"
   xmlns:cc="http://creativecommons.org/ns#"
   xmlns:rdf="http://www.w3.org/1999/02/22-rdf-syntax-ns#"
   xmlns:svg="http://www.w3.org/2000/svg"
   xmlns="http://www.w3.org/2000/svg"
   xmlns:sodipodi="http://sodipodi.sourceforge.net/DTD/sodipodi-0.dtd"
   xmlns:inkscape="http://www.inkscape.org/namespaces/inkscape"
   width="39"
   height="7.9000001"
   viewBox="0 0 39 7.9000002"
   id="svg18780"
   version="1.1"
   inkscape:version="0.92.3 (2405546, 2018-03-11)"
   sodipodi:docname="Paper_Mate_logo.svg">
  <defs
     id="defs18782" />
  <sodipodi:namedview
     id="base"
     pagecolor="#ffffff"
     bordercolor="#666666"
     borderopacity="1.0"
     inkscape:pageopacity="0.0"
     inkscape:pageshadow="2"
     inkscape:zoom="23.205128"
     inkscape:cx="23.56644"
     inkscape:cy="3.95"
     inkscape:document-units="px"
     inkscape:current-layer="layer1"
     showgrid="false"
     units="px"
     inkscape:window-width="1680"
     inkscape:window-height="971"
     inkscape:window-x="-9"
     inkscape:window-y="-9"
     inkscape:window-maximized="1" />
  <metadata
     id="metadata18785">
    <rdf:RDF>
      <cc:Work
         rdf:about="">
        <dc:format>image/svg+xml</dc:format>
        <dc:type
           rdf:resource="http://purl.org/dc/dcmitype/StillImage" />
        <dc:title />
      </cc:Work>
    </rdf:RDF>
  </metadata>
  <g
     inkscape:label="Layer 1"
     inkscape:groupmode="layer"
     id="layer1"
     transform="translate(0,-1044.4622)">
    <g
       id="g13685"
       transform="matrix(1.25,0,0,-1.25,25.88651,1046.8079)">
      <path
         d="m 0,0 c 0.066,-0.126 -0.474,-2.77 -0.476,-2.944 -0.001,-0.179 0.207,-0.318 0.342,-0.318 0.127,-10e-4 0.306,0.2 0.499,0.46 0.314,0.419 1.291,2.201 1.785,2.708 -0.029,-0.413 -0.179,-2.263 -0.182,-2.496 0,-0.242 0.216,-0.55 0.307,-0.55 0.129,-0.002 0.221,0.053 0.221,0.146 C 2.497,-2.93 2.484,-2.89 2.485,-2.73 2.49,-2.232 2.848,0.177 2.849,0.431 2.852,0.682 2.556,0.812 2.484,0.812 2.416,0.814 2.298,0.779 2.227,0.654 2.048,0.333 0.546,-1.635 0.318,-1.911 0.423,-1.212 0.721,0.558 0.723,0.769 0.723,0.859 0.537,1.046 0.33,1.048 0.171,1.049 0.02,0.814 -0.072,0.682 -0.297,0.363 -2.27,-2.486 -2.618,-2.867 c -0.041,-0.048 0.079,-0.232 0.342,-0.235 0.348,-0.002 0.743,1.01 1.307,1.828 C -0.701,-0.88 -0.072,-0.069 0,0"
         style="fill:#003e7e;fill-opacity:1;fill-rule:nonzero;stroke:none"
         id="path13687"
         inkscape:connector-curvature="0" />
    </g>
    <g
       id="g13693"
       transform="matrix(1.25,0,0,-1.25,30.356927,1050.0652)">
      <path
         d="m 0,0 c 0.07,-0.191 0.255,-0.312 0.528,-0.313 0.63,-0.006 1.703,0.631 1.706,0.962 0,0.043 -0.038,0.051 -0.038,0.068 0,0.038 0.149,0.108 0.253,0.107 C 2.603,0.823 2.729,0.719 2.727,0.564 2.724,0.109 1.573,-0.655 0.663,-0.647 c -0.67,0.003 -1.131,0.532 -1.125,1.001 0.004,0.587 0.72,1.201 1.271,1.2 C 1.247,1.55 1.462,1.319 1.461,1.091 1.457,0.693 0.76,0.134 0,0 m -0.035,0.207 c 0.51,0.116 1.212,0.62 1.213,0.878 0,0.078 -0.053,0.132 -0.167,0.132 -0.344,0 -1.033,-0.529 -1.046,-1.01"
         style="fill:#003e7e;fill-opacity:1;fill-rule:nonzero;stroke:none"
         id="path13695"
         inkscape:connector-curvature="0" />
    </g>
    <g
       id="g13697"
       transform="matrix(1.25,0,0,-1.25,14.55026,1049.6043)">
      <path
         d="M 0,0 C 0.066,-0.146 0.196,-0.247 0.339,-0.248 0.893,-0.25 2.085,0.961 2.088,1.306 L 2.05,1.373 C 2.05,1.39 2.168,1.552 2.37,1.55 2.532,1.549 2.638,1.44 2.635,1.295 2.635,1.157 2.545,0.982 2.452,0.769 L 2.485,0.768 C 2.673,1.046 3.027,1.452 3.575,1.449 3.972,1.446 4.25,1.155 4.248,0.843 4.248,0.738 4.226,0.688 4.155,0.688 4.037,0.69 3.999,1.046 3.536,1.049 3.02,1.053 2.529,0.48 2.52,-0.558 c 0,-0.115 -0.044,-0.252 -0.204,-0.251 -0.219,0.002 -0.429,0.166 -0.428,0.304 0.001,0.126 0.123,0.671 0.18,1.044 l -0.025,0 C 1.704,0.135 0.997,-0.66 0.375,-0.655 -0.004,-0.653 -0.482,-0.258 -0.477,0.374 -0.474,0.985 0.277,1.919 0.973,1.915 1.351,1.913 1.573,1.698 1.57,1.395 1.568,0.988 0.818,0.136 0,0 M -0.036,0.204 C 0.569,0.394 1.234,1.089 1.237,1.39 1.238,1.47 1.195,1.522 1.085,1.523 0.687,1.527 -0.01,0.771 -0.036,0.204"
         style="fill:#003e7e;fill-opacity:1;fill-rule:nonzero;stroke:none"
         id="path13699"
         inkscape:connector-curvature="0" />
    </g>
    <g
       id="g13701"
       transform="matrix(1.25,0,0,-1.25,11.14514,1049.8176)">
      <path
         d="M 0,0 C 0.067,0.239 0.263,0.997 0.353,1.259 0.533,1.338 0.768,1.388 0.973,1.385 1.249,1.384 1.552,1.323 1.55,1.063 1.548,0.679 0.636,0.093 0,0 M 0.412,-0.412 C 1.025,-0.417 2.051,0.158 2.056,0.812 2.061,1.348 1.631,1.693 1.008,1.698 0.401,1.701 -0.007,1.546 -0.149,1.31 -0.337,0.999 -1.233,-0.189 -1.552,-0.187 c -0.051,0 -0.073,0.033 -0.073,0.075 0.003,0.313 0.457,0.909 0.457,1.048 10e-4,0.046 -0.014,0.063 -0.087,0.078 0.062,0.134 0.114,0.239 0.115,0.459 0.003,0.233 -0.262,0.554 -0.573,0.556 -0.954,0.006 -2.159,-1.133 -2.166,-2.107 -0.004,-0.364 0.316,-0.669 0.644,-0.671 0.376,-0.003 0.804,0.33 1.046,0.618 0.119,-0.281 0.36,-0.565 0.672,-0.565 0.306,-0.002 0.832,0.59 1.056,0.915 l 0.029,-0.002 c -0.183,-0.654 -0.547,-1.696 -0.547,-1.839 0,-0.164 0.121,-0.346 0.298,-0.348 0.109,0 0.426,1.083 0.584,1.637 0.163,-0.047 0.333,-0.079 0.509,-0.079 m -1.955,1.864 c -0.003,-0.387 -1.087,-1.729 -1.724,-1.724 -0.12,0 -0.187,0.095 -0.186,0.276 0.003,0.53 1.036,1.627 1.75,1.623 0.103,-0.001 0.161,-0.051 0.16,-0.175"
         style="fill:#003e7e;fill-opacity:1;fill-rule:nonzero;stroke:none"
         id="path13703"
         inkscape:connector-curvature="0" />
    </g>
    <g
       id="g13705"
       transform="matrix(1.25,0,0,-1.25,7.9667599,1046.2581)">
      <path
         d="m 0,0 c 0.006,0.702 -0.744,1.363 -2.089,1.371 -1.868,0.011 -4.2,-0.908 -4.209,-2.167 -0.003,-0.43 0.419,-0.731 0.795,-0.732 0.045,-0.002 0.075,0.029 0.075,0.072 0,0.074 -0.329,0.227 -0.327,0.493 0.008,0.935 2.2,1.878 3.744,1.869 0.858,-0.006 1.481,-0.236 1.475,-0.834 -0.006,-0.779 -1.283,-1.66 -2.463,-1.973 0.148,0.433 0.289,0.852 0.385,1.166 0.055,0.18 0.185,0.367 0.186,0.518 10e-4,0.135 -0.146,0.214 -0.288,0.216 -0.246,0.001 -0.467,-0.195 -0.467,-0.235 0,-0.014 0.05,-0.01 0.05,-0.119 -0.002,-0.168 -0.25,-0.866 -0.507,-1.659 -0.065,-0.003 -0.132,-0.007 -0.194,-0.005 -0.243,0.002 -0.383,0.069 -0.383,0.163 l -0.007,0.04 c -0.145,0.001 -0.299,-0.122 -0.299,-0.285 -0.001,-0.173 0.201,-0.338 0.678,-0.341 l 0.07,0 c -0.161,-0.525 -0.309,-1.059 -0.379,-1.484 -0.018,-0.112 0.106,-0.328 0.291,-0.331 0.086,0 0.153,0.231 0.228,0.483 0.09,0.299 0.274,0.83 0.47,1.391 C -1.719,-2.131 -0.009,-1.144 0,0"
         style="fill:#003e7e;fill-opacity:1;fill-rule:nonzero;stroke:none"
         id="path13707"
         inkscape:connector-curvature="0" />
    </g>
    <g
       id="g13709"
       transform="matrix(1.25,0,0,-1.25,33.69096,1046.8806)">
      <path
         d="m 0,0 h -0.091 v -0.137 h 0.092 c 0.049,0 0.093,0.013 0.093,0.07 C 0.094,-0.034 0.072,0 0,0 m 0.078,-0.403 -0.082,0.196 h -0.087 v -0.196 h -0.077 v 0.475 h 0.169 c 0.093,0 0.17,-0.033 0.17,-0.139 0,-0.054 -0.023,-0.102 -0.086,-0.123 l 0.091,-0.213 z m -0.077,0.61 c -0.256,0 -0.423,-0.189 -0.423,-0.388 0,-0.215 0.199,-0.381 0.418,-0.381 0.233,0 0.415,0.169 0.415,0.385 0,0.209 -0.178,0.384 -0.41,0.384 M 0,-0.632 c -0.273,0 -0.496,0.2 -0.496,0.449 0,0.276 0.241,0.457 0.496,0.457 0.258,0 0.483,-0.192 0.483,-0.448 0,-0.267 -0.222,-0.458 -0.483,-0.458"
         style="fill:#003e7e;fill-opacity:1;fill-rule:nonzero;stroke:none"
         id="path13711"
         inkscape:connector-curvature="0" />
    </g>
    <g
       id="g13713"
       transform="matrix(1.25,0,0,-1.25,21.48551,1046.2689)">
      <path
         d="M 0,0 C 0.09,0.25 0.264,0.394 0.542,0.392 0.893,0.39 1.095,0.105 1.093,-0.177 1.089,-0.745 0.29,-1.238 -0.023,-1.516 -0.328,-1.234 -1.12,-0.728 -1.116,-0.162 -1.114,0.12 -0.907,0.401 -0.559,0.4 -0.279,0.398 -0.106,0.252 -0.022,0 L 0,0 Z"
         style="fill:#e2231b;fill-opacity:1;fill-rule:nonzero;stroke:none"
         id="path13715"
         inkscape:connector-curvature="0" />
    </g>
    <g
       id="g13717"
       transform="matrix(1.25,0,0,-1.25,21.46476,1048.8921)">
      <path
         d="M 0,0 C 0.09,0.25 0.265,0.393 0.544,0.392 0.892,0.39 1.096,0.104 1.093,-0.176 1.089,-0.744 0.29,-1.238 -0.022,-1.515 -0.328,-1.233 -1.12,-0.73 -1.117,-0.163 -1.113,0.119 -0.906,0.401 -0.558,0.399 -0.278,0.397 -0.106,0.252 -0.02,0 L 0,0 Z"
         style="fill:#e2231b;fill-opacity:1;fill-rule:nonzero;stroke:none"
         id="path13719"
         inkscape:connector-curvature="0" />
    </g>
  </g>
</svg>
